<?xml version="1.0" standalone="no"?>
<!DOCTYPE svg PUBLIC "-//W3C//DTD SVG 20010904//EN"
 "http://www.w3.org/TR/2001/REC-SVG-20010904/DTD/svg10.dtd">
<svg version="1.0" xmlns="http://www.w3.org/2000/svg"
 width="640.000000pt" height="1280.000000pt" viewBox="0 0 640.000000 1280.000000"
 preserveAspectRatio="xMidYMid meet">
<metadata>
Created by potrace 1.15, written by Peter Selinger 2001-2017
</metadata>
<g transform="translate(0.000000,1280.000000) scale(0.100000,-0.100000)"
fill="#000000" stroke="none">
<path d="M3043 12786 c-23 -8 -75 -32 -116 -54 -41 -23 -105 -53 -142 -67
-103 -39 -163 -75 -210 -128 -61 -67 -85 -137 -97 -288 l-11 -126 32 -55 c18
-32 31 -70 31 -89 0 -19 4 -48 9 -66 8 -27 6 -34 -20 -59 -20 -19 -29 -38 -29
-58 0 -60 106 -292 147 -323 9 -7 27 -13 40 -13 33 0 42 -31 55 -192 l12 -139
-43 -43 c-30 -30 -48 -61 -61 -104 -34 -109 -38 -113 -146 -156 -225 -89 -662
-296 -745 -354 -138 -94 -171 -204 -363 -1192 -131 -673 -128 -658 -133 -810
-5 -179 -6 -185 -43 -207 -51 -30 -50 -72 1 -99 32 -16 37 -39 15 -70 -8 -11
-25 -49 -37 -85 -20 -58 -23 -88 -27 -304 -3 -191 -7 -244 -19 -262 -17 -26
-15 -57 11 -208 9 -49 21 -121 27 -160 6 -38 15 -85 20 -104 4 -18 5 -133 2
-255 -4 -163 -2 -237 7 -281 9 -41 13 -125 11 -266 l-3 -206 45 -94 c24 -52
55 -117 67 -146 40 -91 78 -118 245 -174 82 -27 156 -47 166 -44 10 3 21 15
24 25 3 11 19 29 36 40 19 14 29 30 29 46 0 32 -41 73 -80 81 -26 5 -50 27
-50 47 0 3 15 13 33 22 17 9 35 22 39 28 13 19 8 147 -7 221 -8 38 -15 102
-15 141 0 82 -22 146 -82 238 l-38 58 10 87 c6 47 14 122 19 166 5 44 16 103
24 131 8 27 20 104 26 169 9 103 14 122 35 144 39 43 46 66 46 161 0 73 6 114
30 196 40 138 60 275 50 339 -5 28 -9 74 -9 104 -1 51 1 57 48 106 53 56 74
109 62 153 -5 15 -22 54 -39 87 -29 56 -31 63 -21 107 9 39 20 56 62 93 28 25
54 45 58 45 3 0 14 -26 24 -57 10 -32 34 -93 53 -136 l35 -77 -23 -163 c-13
-89 -26 -206 -28 -259 -4 -118 7 -147 84 -217 68 -63 75 -89 38 -143 l-29 -41
3 -151 c3 -143 2 -151 -18 -166 -16 -12 -26 -37 -36 -91 -7 -41 -29 -126 -48
-189 -100 -328 -101 -333 -100 -490 0 -131 3 -152 27 -219 23 -64 27 -90 27
-185 0 -204 20 -411 55 -556 81 -338 116 -499 150 -685 34 -190 61 -333 105
-560 10 -55 24 -131 30 -170 19 -111 56 -261 94 -383 30 -93 36 -129 36 -199
0 -101 14 -242 70 -708 12 -93 25 -208 31 -255 16 -138 94 -590 129 -745 11
-49 29 -166 39 -260 23 -199 25 -213 61 -285 15 -30 37 -88 50 -128 12 -40 36
-91 52 -113 l29 -41 -15 -69 c-9 -38 -25 -90 -35 -116 -10 -27 -22 -67 -26
-90 -7 -43 -68 -197 -86 -219 -5 -7 -14 -56 -18 -111 -7 -79 -6 -102 5 -121
19 -30 108 -88 175 -114 95 -36 266 -36 401 2 45 13 99 67 96 95 -1 11 6 35
15 52 11 20 15 43 11 57 -3 13 -1 48 5 78 7 35 8 64 2 86 -9 29 -7 34 16 49
25 16 25 19 19 87 -4 39 -10 99 -13 133 -3 35 -3 63 1 63 4 0 29 -11 56 -25
132 -67 238 4 354 237 63 128 133 341 156 478 21 122 26 240 11 268 -8 16 -26
168 -38 332 -3 36 0 77 6 92 5 14 46 54 91 88 111 84 114 91 100 183 -19 113
0 241 65 437 49 150 120 412 135 500 12 64 17 220 13 340 -1 19 -1 53 0 75 1
22 -2 50 -6 62 -6 17 0 30 28 61 l35 40 -11 78 c-6 44 -20 106 -31 139 -18 51
-21 85 -21 220 -1 108 4 175 13 205 11 36 14 192 15 790 1 535 5 777 14 860
l13 115 106 199 c86 162 114 204 144 225 46 32 86 106 162 301 55 141 118 274
212 450 54 101 65 162 40 218 -16 36 -16 43 3 139 12 56 21 128 21 162 0 33 7
82 16 108 11 31 16 76 15 129 -1 53 4 97 15 130 25 73 15 225 -20 324 -15 41
-38 120 -52 175 -14 55 -48 170 -76 255 -56 174 -105 376 -142 585 -26 146
-102 389 -169 540 -20 44 -39 92 -42 108 -12 46 -128 142 -245 201 -109 55
-173 81 -530 219 -209 80 -215 83 -237 122 -13 22 -31 65 -40 95 -13 41 -31
68 -71 107 -71 69 -75 95 -29 199 19 44 40 106 47 139 8 33 24 80 36 105 13
25 26 70 29 100 4 30 11 69 17 85 18 55 26 158 15 202 -10 37 -9 46 9 70 12
16 24 40 27 55 7 28 -10 122 -41 228 -11 36 -22 89 -26 118 -9 91 -47 157
-143 249 -100 96 -164 131 -260 144 -97 12 -221 10 -270 -5z m1563 -4304 c6
-50 6 -52 -22 -63 -67 -26 -78 -35 -92 -77 -12 -36 -12 -49 0 -85 11 -34 21
-46 55 -62 23 -10 45 -25 47 -32 3 -7 -6 -49 -19 -94 -14 -46 -25 -96 -25
-113 -1 -17 -7 -60 -14 -95 -13 -58 -12 -68 5 -119 13 -37 19 -83 19 -139 0
-80 -2 -87 -40 -150 -45 -74 -47 -85 -25 -136 20 -49 19 -79 -6 -111 -25 -32
-36 -33 -45 -3 -3 12 -25 60 -47 107 -54 116 -56 142 -19 237 98 254 107 284
107 373 0 77 -4 93 -37 167 -57 126 -81 299 -68 488 5 66 11 127 15 136 4 12
30 -9 105 -81 94 -92 99 -98 106 -148z m-1188 -3619 c52 -171 148 -646 142
-698 -2 -16 -4 -75 -4 -130 -1 -92 1 -104 27 -148 25 -42 27 -52 18 -79 -17
-50 -13 -103 14 -164 30 -69 31 -98 5 -189 -27 -90 -36 -274 -21 -424 10 -104
13 -117 38 -143 23 -24 25 -32 15 -46 -53 -76 -61 -100 -81 -237 -11 -77 -23
-214 -26 -305 -7 -175 -18 -267 -34 -283 -6 -6 -24 -4 -48 5 -21 9 -44 13 -50
11 -16 -6 -16 1 2 167 26 243 8 737 -30 825 -9 22 -21 85 -26 140 -5 57 -18
124 -30 157 -20 54 -20 60 -6 120 43 172 44 228 22 643 -8 149 -18 363 -21
477 l-7 206 33 86 c18 47 37 83 41 81 4 -3 16 -35 27 -72z"/>
</g>
</svg>
