<?xml version="1.0" standalone="no"?>
<!DOCTYPE svg PUBLIC "-//W3C//DTD SVG 20010904//EN"
 "http://www.w3.org/TR/2001/REC-SVG-20010904/DTD/svg10.dtd">
<svg version="1.0" xmlns="http://www.w3.org/2000/svg"
 width="2351.000000pt" height="1195.000000pt" viewBox="0 0 2351.000000 1195.000000"
 preserveAspectRatio="xMidYMid meet">

<g transform="translate(0.000000,1195.000000) scale(0.100000,-0.100000)"
fill="currentColor" stroke="none">
<path d="M5532 10815 c-706 -108 -1264 -655 -1384 -1359 -30 -177 -23 -450 16
-621 78 -338 228 -602 481 -843 423 -404 1023 -548 1593 -382 121 36 271 100
366 158 37 23 70 42 72 42 2 0 4 -61 4 -135 l0 -135 195 0 195 0 -2 918 -3
917 -627 3 -628 2 0 -190 0 -190 435 0 435 0 0 -350 0 -349 -89 -73 c-159
-130 -320 -213 -519 -265 -131 -34 -372 -43 -512 -19 -671 117 -1135 754
-1036 1424 55 374 265 692 590 896 289 182 658 234 984 140 226 -65 439 -200
630 -398 l94 -97 96 90 c53 49 115 107 136 130 l39 40 -41 48 c-240 284 -610
505 -977 583 -131 28 -408 36 -543 15z"/>
<path d="M7895 9014 c-335 -795 -611 -1449 -613 -1455 -2 -5 65 -9 170 -9
l173 0 64 148 c36 81 117 269 182 417 l117 270 520 3 c408 2 521 -1 529 -10 5
-7 88 -196 184 -420 l174 -408 173 0 c141 0 173 3 170 14 -6 26 -1223 2896
-1228 2896 -3 0 -279 -651 -615 -1446z m812 159 l191 -458 -385 -3 c-212 -1
-388 -1 -389 1 -7 7 375 917 385 917 4 0 93 -206 198 -457z"/>
<path d="M12587 9023 c-333 -791 -609 -1446 -613 -1456 -6 -16 5 -17 167 -15
l173 3 40 90 c22 50 103 236 180 415 l141 325 525 0 524 0 179 -417 180 -418
173 0 c96 0 174 2 174 4 0 9 -1222 2891 -1229 2899 -4 4 -280 -640 -614 -1430z
m808 150 l192 -458 -385 -3 c-212 -1 -387 0 -389 2 -2 2 61 161 141 352 197
477 239 574 245 569 2 -3 90 -211 196 -462z"/>
<path d="M9950 8951 l0 -1401 160 0 160 0 2 578 3 577 247 3 248 2 23 -37 c13
-21 162 -282 332 -580 l309 -543 183 0 c101 0 183 2 183 5 0 2 -151 268 -335
591 -184 323 -332 591 -329 596 3 4 13 8 22 8 30 0 235 106 299 154 217 164
326 432 293 717 -23 199 -81 321 -220 459 -78 79 -111 104 -185 142 -95 48
-175 77 -290 104 -59 14 -149 18 -587 21 l-518 4 0 -1400z m1089 1046 c123
-36 183 -69 257 -142 150 -148 185 -360 92 -553 -56 -117 -207 -215 -389 -252
-81 -17 -136 -20 -411 -20 l-318 0 0 501 0 500 338 -4 c330 -3 339 -4 431 -30z"/>
<path d="M15820 10343 c-70 -7 -235 -45 -304 -70 -250 -90 -490 -268 -652
-482 -123 -164 -224 -399 -258 -600 -10 -56 -16 -154 -16 -241 0 -246 46 -439
156 -649 366 -704 1243 -959 1935 -562 l84 48 3 -118 3 -119 154 0 155 0 0
780 0 780 -695 0 -695 0 0 -155 0 -155 540 0 540 0 0 -299 0 -298 -52 -49
c-148 -139 -332 -230 -545 -270 -129 -24 -345 -15 -471 20 -194 54 -339 140
-487 290 -158 159 -251 330 -295 546 -30 145 -24 350 14 490 106 385 403 677
793 781 113 30 320 37 433 14 230 -47 438 -163 622 -347 l99 -99 87 79 c48 44
99 93 114 109 l28 29 -103 102 c-158 157 -275 241 -460 327 -182 85 -374 126
-577 123 -63 -1 -131 -3 -150 -5z"/>
<path d="M17390 8950 l0 -1400 730 0 730 0 0 160 0 160 -565 0 -565 0 0 460 0
460 565 0 565 0 0 160 0 160 -565 0 -565 0 0 460 0 460 565 0 565 0 0 160 0
160 -730 0 -730 0 0 -1400z"/>
<path d="M1290 8470 l0 -920 450 0 450 0 0 55 0 55 -390 0 -390 0 0 865 0 865
-60 0 -60 0 0 -920z"/>
<path d="M2290 8470 l0 -920 570 0 570 0 0 55 0 55 -510 0 -510 0 0 375 0 375
510 0 510 0 0 60 0 60 -510 0 -510 0 0 370 0 370 510 0 510 0 0 60 0 60 -570
0 -570 0 0 -920z"/>
<path d="M19412 7160 c-209 -75 -342 -258 -342 -471 0 -97 30 -183 102 -290
64 -96 83 -155 122 -380 25 -144 27 -365 18 -1779 -9 -1307 -10 -1358 -30
-1450 -44 -203 -81 -286 -232 -520 -52 -80 -105 -172 -119 -205 -68 -165 -2
-326 225 -552 122 -121 187 -166 231 -161 50 6 46 42 -37 303 -80 250 -55 328
133 415 115 54 220 60 317 19 91 -40 102 -62 150 -319 44 -232 58 -256 119
-214 52 37 131 275 138 419 9 181 -22 273 -155 449 -131 175 -189 314 -223
547 -15 101 -14 2784 2 2965 18 224 53 348 130 470 64 101 90 185 90 289 1
280 -214 486 -506 485 -53 -1 -98 -7 -133 -20z m190 -122 c17 -12 45 -21 62
-20 57 2 75 -7 95 -46 11 -20 37 -48 59 -61 36 -22 40 -28 35 -55 -3 -21 4
-47 21 -81 31 -60 32 -75 6 -108 -14 -18 -20 -40 -20 -80 0 -54 0 -54 -42 -77
-27 -14 -54 -40 -71 -67 -26 -42 -30 -45 -61 -40 -24 4 -50 -2 -86 -19 l-53
-25 -38 26 c-28 18 -52 25 -87 25 -42 0 -50 3 -60 24 -6 13 -33 43 -61 67 -47
41 -51 47 -51 89 0 32 -7 56 -25 82 -14 20 -25 41 -25 46 0 4 11 23 25 42 18
25 25 46 25 81 0 43 3 48 39 72 21 14 52 44 67 65 24 34 33 39 64 38 19 0 53
9 75 21 51 28 70 28 107 1z"/>
<path d="M5891 6932 c-25 -26 -73 -83 -106 -125 -33 -42 -79 -100 -102 -129
-24 -28 -43 -55 -43 -60 0 -4 -24 -34 -53 -66 -63 -69 -154 -185 -274 -352
-92 -127 -125 -182 -121 -198 2 -5 -29 -54 -68 -108 -39 -55 -109 -155 -156
-224 -46 -69 -192 -259 -323 -424 -132 -164 -255 -323 -273 -354 -99 -168
-236 -314 -391 -417 -16 -11 -48 -33 -70 -49 -55 -38 -110 -43 -186 -16 -119
43 -291 37 -452 -16 -41 -13 -76 -24 -78 -24 -3 0 -5 61 -5 136 l0 137 88 -7
c334 -24 718 -39 682 -26 -33 12 -360 55 -587 77 l-183 18 0 60 0 60 157 -8
c87 -4 241 -6 343 -5 l185 3 -105 13 c-102 12 -328 34 -497 47 l-83 7 0 49 c0
27 3 49 8 49 4 0 99 -15 212 -34 113 -19 237 -37 275 -40 l70 -6 -85 25 c-70
21 -174 46 -457 110 -21 5 -23 11 -23 65 0 70 -8 67 125 45 122 -19 367 -47
372 -42 8 9 -192 57 -439 107 l-58 11 0 56 0 56 93 -6 c217 -15 342 -18 327
-8 -17 11 -188 45 -325 64 l-90 13 -3 43 -3 44 44 -6 c86 -12 373 -19 357 -9
-17 12 -232 49 -332 59 l-68 6 0 45 c0 34 3 43 14 39 18 -7 247 -53 306 -62
30 -4 42 -3 35 4 -11 10 -257 94 -312 106 -32 6 -33 8 -33 59 l0 53 98 6 c53
3 113 9 132 13 l35 8 -30 8 c-16 5 -76 11 -132 15 l-103 6 0 41 0 41 87 -3
c81 -2 86 -1 63 12 -14 8 -53 22 -87 32 l-63 17 0 44 0 45 98 -7 c122 -9 116
9 -12 33 l-86 17 0 45 0 46 39 -4 c71 -7 79 3 19 23 -52 17 -58 21 -58 47 0
25 3 28 38 29 l37 2 -37 10 c-23 6 -38 17 -39 26 0 11 -2 12 -6 4 -2 -7 -21
-13 -41 -14 l-37 -1 35 -11 c45 -13 42 -10 35 -40 -6 -24 -12 -26 -63 -29
l-57 -3 58 -18 c60 -20 66 -29 51 -84 -6 -21 -10 -21 -97 -17 -107 6 -101 -5
16 -31 82 -18 87 -23 71 -81 -5 -21 -11 -21 -92 -17 -79 4 -85 3 -68 -11 10
-8 49 -23 87 -33 73 -18 75 -21 63 -80 l-6 -30 -96 -6 c-54 -4 -110 -10 -127
-15 l-30 -9 40 -6 c22 -4 80 -10 128 -14 l88 -6 -7 -41 c-3 -23 -7 -42 -8 -43
-1 -2 -54 8 -117 21 -126 27 -219 41 -219 33 0 -6 181 -70 270 -95 l65 -18 -4
-45 c-1 -24 -4 -45 -5 -46 -1 -1 -56 2 -121 7 -158 12 -298 12 -267 0 28 -12
233 -47 322 -56 l65 -6 -3 -42 -4 -42 -66 7 c-118 13 -400 20 -372 9 33 -12
277 -57 363 -66 l67 -7 0 -53 c0 -32 -4 -54 -11 -54 -6 0 -88 11 -182 24 -95
14 -206 27 -247 30 l-75 6 65 -20 c36 -11 139 -36 230 -55 91 -19 175 -38 188
-40 19 -5 22 -12 22 -53 0 -26 -4 -52 -8 -59 -6 -10 -46 -6 -172 16 -200 35
-410 65 -416 58 -4 -4 385 -102 516 -129 l65 -14 -2 -53 c-2 -30 -4 -56 -7
-58 -5 -6 -583 16 -600 23 -11 4 -7 12 17 33 l31 28 -58 22 c-31 11 -63 21
-72 21 -11 0 -12 4 -5 19 8 14 5 23 -14 41 -14 13 -25 29 -25 35 0 6 -13 24
-29 39 -23 22 -35 27 -56 22 -24 -6 -69 -62 -60 -76 3 -4 -7 -18 -20 -30 l-25
-24 22 -23 c12 -12 20 -24 17 -26 -2 -2 -24 -16 -48 -31 l-45 -29 23 -18 c13
-11 29 -19 37 -19 17 0 18 -12 1 -29 -10 -10 -7 -16 12 -32 21 -17 22 -19 5
-25 -65 -22 -126 -56 -118 -64 5 -5 34 -18 64 -28 l54 -19 -44 -7 c-59 -9
-170 -45 -170 -56 0 -4 30 -16 68 -25 124 -32 122 -31 67 -38 -62 -8 -225 -57
-225 -68 0 -9 127 -39 167 -39 42 0 61 -16 29 -24 -52 -13 -136 -48 -136 -56
0 -7 49 -20 125 -33 13 -2 4 -8 -25 -16 -129 -35 -190 -55 -190 -62 0 -4 26
-11 57 -14 60 -8 106 -24 69 -25 -31 0 -176 -41 -176 -50 0 -9 157 -30 227
-30 88 0 66 -13 -69 -40 -73 -15 -160 -36 -193 -46 l-60 -18 40 -7 c22 -4 98
-11 168 -15 l128 -7 -132 -33 c-72 -18 -133 -35 -136 -38 -19 -18 274 -37 454
-29 l141 6 7 -79 c4 -43 7 -91 8 -105 2 -22 -49 -78 -305 -335 -169 -170 -351
-349 -404 -399 -90 -83 -116 -113 -206 -234 -18 -24 -68 -84 -111 -134 -43
-49 -84 -100 -89 -113 -6 -13 -15 -24 -19 -24 -5 0 -16 -14 -24 -31 -15 -28
-15 -32 0 -49 9 -10 35 -23 58 -28 56 -14 1511 -8 1912 8 233 9 453 9 990 -1
845 -16 1864 -20 2200 -8 250 9 386 25 583 68 48 11 119 25 157 30 39 6 88 15
110 21 22 5 85 19 140 31 55 12 174 46 265 75 213 70 334 96 633 139 361 52
466 84 548 166 32 32 39 46 39 78 0 33 -6 44 -41 76 -50 45 -106 70 -224 100
-148 38 -258 46 -730 55 -444 9 -558 17 -775 55 -70 12 -98 21 -108 36 -9 13
-20 18 -32 14 -21 -7 -153 74 -173 106 -6 10 -16 19 -20 19 -16 0 -37 28 -37
49 0 42 109 131 161 131 6 0 17 6 23 14 6 7 32 20 57 29 l45 14 -4 -26 c-9
-66 94 -141 248 -180 183 -46 177 -46 1650 -47 1550 -1 1475 3 1591 -67 72
-43 112 -116 106 -194 -11 -151 -154 -214 -557 -248 -316 -27 -447 -58 -635
-152 -96 -48 -243 -141 -266 -169 -7 -9 21 8 62 38 132 94 310 177 467 218 81
20 167 31 418 50 254 20 405 64 476 138 63 66 75 151 34 238 -34 72 -94 115
-211 150 -56 16 -159 18 -1455 25 -919 4 -1422 10 -1474 17 -58 8 -83 17 -96
33 -18 20 -47 18 -34 -3 17 -27 -159 25 -226 67 -50 32 -62 49 -58 87 2 25 10
36 32 47 22 10 31 11 34 3 4 -14 32 -16 32 -3 0 5 -6 11 -12 13 -7 3 10 10 37
17 35 9 51 9 53 2 5 -15 21 -14 38 4 12 11 39 15 111 15 131 0 160 10 202 71
19 27 58 72 88 99 68 63 201 150 227 150 11 0 59 22 107 50 48 27 100 52 116
56 15 3 46 12 68 21 36 13 52 12 140 -2 55 -9 125 -22 156 -30 115 -30 197
-13 275 58 37 33 309 215 404 270 123 71 321 120 414 103 40 -8 209 -127 316
-224 70 -64 117 -98 125 -90 9 10 7 46 -3 66 -11 19 -10 23 3 27 52 17 52 15
0 62 -100 92 -271 187 -383 213 -33 8 -77 10 -116 5 l-64 -6 -35 43 c-53 66
-116 173 -141 244 -34 93 -104 210 -154 256 -48 44 -49 44 -176 16 l-59 -13
-31 40 c-17 21 -50 58 -73 81 -24 23 -43 46 -43 51 0 14 -77 131 -111 171 -16
18 -43 59 -59 90 -17 31 -60 100 -96 152 -84 122 -143 238 -154 305 -11 70
-35 125 -55 125 -8 0 -70 -54 -138 -119 -67 -65 -156 -146 -197 -179 -92 -73
-285 -270 -366 -372 -93 -119 -93 -119 -289 -185 -163 -55 -142 -64 -214 90
-26 55 -60 115 -75 133 -40 46 -170 106 -311 143 -66 17 -141 42 -168 57 -40
22 -49 32 -61 72 -18 59 -44 112 -111 221 -119 193 -188 354 -224 524 -34 157
-88 311 -118 335 -14 11 -30 20 -36 20 -5 0 -31 -22 -56 -48z m12 -357 c8 -8
27 -51 41 -97 36 -110 99 -258 146 -338 20 -36 52 -109 69 -162 52 -156 102
-207 240 -243 35 -9 81 -23 102 -32 35 -14 38 -17 27 -37 -15 -29 -28 -36 -59
-29 -15 3 -51 -2 -80 -11 -46 -13 -69 -30 -156 -117 l-102 -101 -47 16 c-69
23 -111 20 -184 -15 -87 -41 -113 -40 -195 12 -37 23 -83 48 -103 55 -47 17
-114 18 -130 2 -8 -8 -7 6 4 42 38 131 70 214 134 350 82 174 88 196 99 345 8
110 11 119 48 183 87 147 116 192 124 192 4 0 14 -7 22 -15z m-145 -113 c-75
-121 -80 -137 -84 -225 -4 -117 -20 -180 -84 -322 -132 -297 -171 -432 -174
-594 l-2 -114 -61 -57 c-34 -31 -80 -69 -103 -85 -38 -26 -43 -27 -81 -16 -22
7 -57 27 -77 45 -51 46 -74 56 -125 56 -47 0 -65 -10 -143 -81 -28 -25 -64
-44 -110 -58 -37 -11 -69 -19 -70 -18 -2 1 49 65 113 142 63 77 145 178 181
225 36 47 100 128 142 181 89 114 230 315 290 414 24 39 71 132 105 207 67
147 139 263 183 297 91 69 147 107 150 99 2 -5 -20 -48 -50 -96z m2489 -612
c20 -36 68 -112 106 -170 38 -57 64 -106 59 -108 -6 -2 -33 8 -61 22 -89 45
-135 36 -246 -48 -52 -40 -49 -40 -108 15 -34 32 -38 20 64 184 37 61 78 136
90 168 l22 58 19 -28 c10 -15 35 -57 55 -93z m-161 22 c-14 -27 -52 -83 -84
-123 -32 -41 -77 -101 -99 -134 -33 -48 -120 -149 -237 -273 -10 -10 -18 -10
-42 3 -39 19 -74 9 -168 -47 -65 -39 -77 -42 -143 -42 l-72 -1 22 23 c30 33
97 65 198 96 78 23 94 33 167 98 45 40 101 100 125 133 25 33 72 83 106 110
34 28 103 87 153 132 51 45 94 81 96 79 2 -2 -8 -26 -22 -54z m-1368 -279 c62
-75 94 -124 126 -191 40 -84 120 -219 184 -311 24 -36 54 -88 67 -116 38 -87
94 -110 297 -124 134 -8 139 -9 199 -45 77 -46 148 -64 184 -48 57 26 9 93
-95 133 -32 13 -57 26 -55 30 2 3 -12 6 -31 7 -50 2 -54 7 -54 67 0 113 80
245 255 418 152 151 146 148 196 102 35 -31 46 -36 72 -31 17 3 46 19 64 34
55 43 106 72 131 72 12 0 45 -11 72 -25 27 -14 65 -25 84 -25 34 0 37 -3 91
-100 31 -56 78 -127 105 -159 48 -58 133 -121 163 -121 9 0 46 -10 82 -22 55
-18 68 -26 79 -52 7 -18 36 -63 64 -101 27 -39 64 -104 82 -145 18 -41 42 -88
53 -104 11 -15 20 -44 21 -64 1 -36 0 -37 -95 -88 -106 -57 -176 -102 -314
-205 -49 -36 -116 -83 -147 -103 l-57 -36 -65 15 c-36 8 -114 24 -175 34 -100
17 -118 17 -190 5 -236 -41 -463 -153 -724 -357 -113 -89 -147 -99 -147 -42 0
74 -132 171 -290 214 -94 26 -213 44 -455 71 -104 12 -226 28 -269 36 -86 17
-156 47 -156 67 0 23 32 59 66 73 64 27 409 55 844 69 718 23 1384 53 1477 66
149 21 272 71 312 128 23 32 28 99 11 132 -23 41 -210 107 -380 133 -120 18
-308 36 -360 35 -19 -1 44 -9 140 -20 303 -32 508 -86 574 -151 24 -25 28 -34
23 -65 -15 -88 -141 -151 -357 -177 -48 -6 -614 -28 -1160 -46 -688 -22 -1005
-42 -1112 -71 -47 -12 -108 -67 -108 -96 0 -77 88 -100 608 -163 278 -34 430
-82 518 -165 35 -33 53 -80 37 -96 -6 -6 -50 -18 -99 -28 -49 -11 -139 -35
-200 -55 -61 -20 -117 -36 -124 -36 -8 0 -59 -21 -114 -47 -76 -36 -116 -48
-161 -51 -58 -4 -65 -1 -207 71 -82 42 -181 84 -226 96 -115 31 -275 44 -388
31 -87 -9 -98 -8 -169 15 -76 24 -228 45 -335 45 l-59 0 -8 48 c-13 75 -7 260
11 353 9 48 37 160 62 250 44 160 60 196 184 441 115 224 113 217 105 301 -9
92 -2 115 40 132 43 18 79 8 175 -50 90 -53 117 -56 205 -16 95 43 116 46 174
20 65 -27 88 -21 131 36 18 24 42 47 52 51 10 3 32 26 49 51 37 53 78 73 152
73 57 0 107 26 107 56 0 22 130 -29 158 -63z m881 -284 c-10 -6 -8 -10 8 -16
21 -8 20 -11 -30 -85 -48 -71 -54 -77 -79 -72 -34 7 -38 -13 -5 -22 19 -4 23
-11 19 -30 -3 -15 -15 -29 -28 -34 -32 -13 -31 -34 1 -28 14 3 25 1 25 -3 0
-5 -7 -9 -16 -9 -10 0 -14 -6 -10 -15 3 -9 0 -15 -9 -15 -8 0 -15 -6 -16 -12
0 -10 -2 -10 -6 0 -2 6 -15 12 -28 12 -13 0 -26 3 -28 8 -3 4 7 7 21 7 15 0
28 5 29 10 1 6 -7 9 -18 7 -14 -2 -22 3 -26 17 -3 12 -14 21 -25 21 -17 0 -19
-5 -13 -32 l6 -33 -20 25 c-11 13 -17 29 -14 34 3 5 -6 7 -21 4 -21 -4 -24 -3
-15 8 6 8 9 25 7 39 -3 14 -1 28 4 31 4 3 6 10 2 15 -3 6 -2 18 2 27 4 9 8 24
8 32 1 10 13 15 39 16 21 0 42 5 45 10 14 20 64 45 79 40 9 -4 17 1 20 12 2
10 23 25 46 34 41 15 72 13 46 -3z m-359 -119 c0 -5 -4 -10 -10 -10 -5 0 -10
5 -10 10 0 6 5 10 10 10 6 0 10 -4 10 -10z m60 -4 c0 -14 -29 -31 -38 -21 -6
6 18 35 29 35 5 0 9 -6 9 -14z m-61 -53 c-6 -6 -8 -22 -4 -34 5 -15 4 -19 -5
-14 -6 4 -10 18 -7 32 3 15 -1 27 -9 30 -8 3 -11 9 -8 14 2 5 13 3 24 -3 14
-9 16 -16 9 -25z m-1858 -52 c-10 -28 -51 -109 -89 -179 -49 -88 -81 -163
-106 -242 -80 -265 -116 -394 -116 -420 0 -16 -5 -32 -10 -35 -6 -4 -8 -21 -4
-40 3 -20 1 -35 -6 -40 -8 -5 -8 -11 1 -21 10 -12 8 -17 -5 -27 -21 -15 -13
-65 12 -74 12 -5 12 -8 -4 -20 -15 -11 -16 -15 -5 -22 10 -6 10 -10 1 -16 -7
-4 -19 0 -28 9 -11 10 -12 16 -4 16 12 0 17 32 6 42 -7 7 -58 -18 -73 -36 -16
-19 5 -32 25 -15 8 6 17 9 20 7 13 -14 -72 -52 -121 -53 -29 -1 -59 -6 -66
-11 -8 -4 -27 -7 -43 -5 -23 2 -28 0 -23 -13 4 -9 4 -16 1 -16 -9 0 -34 28
-34 39 0 6 -12 8 -30 4 -25 -5 -29 -3 -24 11 4 11 1 16 -10 16 -12 0 -14 -7
-9 -30 6 -32 4 -34 -21 -24 -13 5 -14 9 -5 20 14 17 1 23 -53 27 -38 3 -192
96 -202 123 -3 8 -13 14 -21 14 -9 0 -44 19 -78 42 -52 36 -58 43 -39 46 33 5
27 22 -8 22 -16 0 -30 -5 -30 -11 0 -5 -5 -7 -11 -3 -8 4 -7 9 2 16 11 7 11
11 2 15 -17 6 -17 37 0 30 17 -6 52 19 38 28 -6 3 -16 3 -21 0 -6 -4 -17 -1
-25 5 -8 7 -23 9 -32 6 -15 -6 -15 -8 -3 -16 13 -9 13 -10 0 -10 -8 1 -24 8
-35 17 -20 15 -20 15 2 10 27 -6 39 7 23 25 -6 7 -17 22 -24 32 -7 11 -18 16
-25 12 -9 -6 -9 -11 0 -22 7 -9 8 -14 1 -14 -14 0 -26 40 -15 50 4 4 17 10 28
12 14 3 19 11 18 26 -2 13 1 21 6 18 15 -10 43 6 37 20 -6 15 111 117 125 108
5 -3 14 -2 20 2 8 5 8 9 -1 14 -9 6 -6 10 9 15 19 6 70 55 130 125 11 14 51
67 87 117 71 100 132 152 204 172 70 20 131 55 175 100 24 25 48 41 62 41 30
0 92 -32 118 -60 69 -77 151 -65 265 38 30 27 56 46 58 42 2 -4 -6 -31 -17
-59z m1893 -26 c3 -8 1 -15 -4 -15 -6 0 -10 7 -10 15 0 8 2 15 4 15 2 0 6 -7
10 -15z m36 -44 c0 -6 -4 -13 -10 -16 -5 -3 -10 1 -10 9 0 9 5 16 10 16 6 0
10 -4 10 -9z m-4515 -156 c110 -9 218 -18 241 -21 l41 -5 -5 -52 c-2 -29 -6
-54 -8 -56 -3 -4 -284 13 -428 25 -61 6 -68 8 -52 20 17 12 15 14 -20 29 -22
9 -51 19 -66 22 -36 7 -35 13 5 41 22 16 41 21 62 18 17 -3 120 -12 230 -21z
m80 -182 l185 -18 -1 -40 c0 -22 -6 -105 -12 -185 l-12 -145 -45 1 c-25 0 -90
4 -145 9 l-100 8 80 25 c44 13 84 27 88 32 9 8 -100 25 -231 36 l-82 7 52 25
53 25 -40 13 c-22 7 -52 13 -67 13 -44 1 -33 17 22 29 27 6 67 19 87 28 l38
17 -70 18 c-38 9 -88 18 -110 19 -22 1 -35 3 -30 5 6 2 50 15 99 30 95 28 98
36 25 60 l-44 15 37 -4 c21 -3 121 -13 223 -23z m818 -313 c43 -13 104 -47
179 -97 111 -75 450 -294 557 -359 30 -19 75 -41 100 -50 25 -9 57 -21 70 -28
40 -18 337 -13 464 8 138 24 242 18 402 -24 114 -29 130 -31 308 -31 104 0
212 -4 240 -10 60 -13 233 -92 322 -148 33 -21 92 -54 130 -74 39 -19 117 -70
174 -112 58 -43 166 -111 240 -152 75 -42 161 -93 191 -114 30 -22 89 -56 130
-77 41 -21 84 -43 95 -49 26 -16 181 -83 189 -83 25 0 127 -58 182 -104 36
-29 78 -56 94 -59 59 -12 140 33 140 78 0 35 -31 54 -107 65 -84 11 -103 18
-103 35 0 7 -7 15 -15 19 -8 3 -15 1 -15 -4 0 -6 -5 -10 -11 -10 -6 0 -9 7 -5
15 3 9 0 15 -10 15 -8 0 -12 -4 -9 -10 7 -11 3 -12 -19 -4 -8 3 -12 12 -9 20
3 10 0 12 -10 8 -10 -3 -17 1 -19 12 -3 16 -4 16 -22 -1 -15 -15 -22 -16 -37
-7 -10 7 -25 12 -33 12 -9 0 -40 9 -70 21 -68 25 -329 196 -320 210 4 7 10 6
18 0 7 -6 15 -9 18 -6 2 2 63 -4 134 -14 177 -26 385 -39 739 -46 311 -6 426
-15 554 -41 148 -31 281 -102 281 -152 0 -54 -114 -129 -247 -162 -43 -11
-188 -36 -322 -55 -265 -39 -441 -80 -620 -145 -256 -92 -449 -130 -611 -122
-117 6 -106 6 -850 -3 -417 -6 -550 -5 -603 6 -55 10 -127 10 -385 -1 -244 -9
-371 -10 -552 -1 -792 37 -1856 49 -2060 22 -145 -18 -736 -20 -886 -1 l-111
13 9 36 c17 62 78 185 107 216 15 17 38 47 50 68 13 20 27 37 31 37 5 0 121
110 257 244 136 134 274 265 305 292 32 27 94 94 139 149 95 118 254 285 270
285 6 0 39 27 73 60 56 53 72 63 146 85 46 14 85 27 88 29 2 3 -17 8 -42 11
l-45 7 31 26 c17 15 61 36 97 48 55 18 62 22 43 28 -21 7 -19 10 30 45 29 21
94 55 143 76 181 78 265 90 378 55z m-723 -114 c0 -2 -15 -14 -34 -25 -24 -15
-49 -21 -92 -20 l-59 1 84 19 c46 10 86 21 89 24 6 6 12 7 12 1z m-350 -305
c-5 -11 -40 -50 -77 -86 -75 -74 -77 -74 -88 22 l-7 62 49 6 c26 3 55 8 63 9
8 2 28 4 43 5 24 1 26 -1 17 -18z m2335 -41 c-3 -5 -12 -10 -18 -10 -7 0 -6 4
3 10 19 12 23 12 15 0z m58 3 c-7 -2 -19 -2 -25 0 -7 3 -2 5 12 5 14 0 19 -2
13 -5z m-136 -19 c-3 -3 -12 -4 -19 -1 -8 3 -5 6 6 6 11 1 17 -2 13 -5z m2183
-604 c0 -5 -7 -7 -15 -4 -8 4 -15 8 -15 10 0 2 7 4 15 4 8 0 15 -4 15 -10z"/>
<path d="M6565 5570 c3 -5 8 -10 11 -10 2 0 4 5 4 10 0 6 -5 10 -11 10 -5 0
-7 -4 -4 -10z"/>
<path d="M6490 5540 c0 -6 7 -10 15 -10 8 0 15 2 15 4 0 2 -7 6 -15 10 -8 3
-15 1 -15 -4z"/>
<path d="M6555 5530 c-3 -5 1 -10 10 -10 9 0 13 5 10 10 -3 6 -8 10 -10 10 -2
0 -7 -4 -10 -10z"/>
<path d="M6615 5530 c-3 -5 1 -10 10 -10 9 0 13 5 10 10 -3 6 -8 10 -10 10 -2
0 -7 -4 -10 -10z"/>
<path d="M6670 5440 c0 -5 4 -10 9 -10 6 0 13 5 16 10 3 6 -1 10 -9 10 -9 0
-16 -4 -16 -10z"/>
<path d="M8295 5440 c-3 -5 -1 -10 4 -10 6 0 11 5 11 10 0 6 -2 10 -4 10 -3 0
-8 -4 -11 -10z"/>
<path d="M8170 5370 c0 -5 5 -10 10 -10 6 0 10 5 10 10 0 6 -4 10 -10 10 -5 0
-10 -4 -10 -10z"/>
<path d="M5577 5343 c-4 -3 -7 -11 -7 -17 0 -6 5 -5 12 2 6 6 9 14 7 17 -3 3
-9 2 -12 -2z"/>
<path d="M5525 5330 c-3 -5 1 -10 10 -10 9 0 13 5 10 10 -3 6 -8 10 -10 10 -2
0 -7 -4 -10 -10z"/>
<path d="M5665 5310 c-3 -5 -1 -10 4 -10 6 0 11 5 11 10 0 6 -2 10 -4 10 -3 0
-8 -4 -11 -10z"/>
<path d="M5560 5260 c0 -5 5 -10 10 -10 6 0 10 5 10 10 0 6 -4 10 -10 10 -5 0
-10 -4 -10 -10z"/>
<path d="M8570 5080 c0 -5 5 -10 10 -10 6 0 10 5 10 10 0 6 -4 10 -10 10 -5 0
-10 -4 -10 -10z"/>
<path d="M7608 4943 c7 -3 16 -2 19 1 4 3 -2 6 -13 5 -11 0 -14 -3 -6 -6z"/>
<path d="M7768 4933 c17 -2 47 -2 65 0 17 2 3 4 -33 4 -36 0 -50 -2 -32 -4z"/>
<path d="M7918 4923 c18 -2 45 -2 60 0 15 2 0 4 -33 4 -33 0 -45 -2 -27 -4z"/>
<path d="M7770 4909 c416 -34 591 -60 685 -103 96 -44 83 -109 -31 -154 -158
-64 -142 -63 -959 -78 -412 -8 -880 -12 -1040 -9 -428 9 -742 -14 -857 -64
-66 -28 -116 -76 -129 -123 -9 -36 -7 -46 16 -93 54 -112 175 -182 379 -220
44 -8 178 -24 296 -35 118 -11 251 -27 296 -35 105 -20 222 -60 251 -87 39
-37 30 -53 -57 -98 -76 -40 -160 -115 -160 -142 0 -7 9 1 20 19 23 38 87 88
150 115 59 27 80 46 80 74 0 35 -53 71 -153 103 -118 38 -168 46 -417 71 -380
38 -499 71 -603 169 -45 42 -77 99 -77 137 0 19 13 40 43 68 97 93 206 105
937 106 305 0 699 5 875 11 176 5 455 14 620 18 281 8 306 10 388 35 160 48
217 86 217 148 0 72 -123 120 -380 147 -120 13 -402 31 -455 30 -22 -1 7 -6
65 -10z"/>
<path d="M7327 4793 c-12 -11 -8 -23 8 -23 8 0 15 7 15 15 0 16 -12 20 -23 8z"/>
<path d="M7410 4780 c0 -5 7 -10 15 -10 8 0 15 5 15 10 0 6 -7 10 -15 10 -8 0
-15 -4 -15 -10z"/>
<path d="M7460 4760 c0 -5 7 -10 15 -10 8 0 15 5 15 10 0 6 -7 10 -15 10 -8 0
-15 -4 -15 -10z"/>
<path d="M7550 4761 c0 -6 5 -13 10 -16 6 -3 10 1 10 9 0 9 -4 16 -10 16 -5 0
-10 -4 -10 -9z"/>
<path d="M7365 4730 c-3 -5 1 -10 9 -10 9 0 16 5 16 10 0 6 -4 10 -9 10 -6 0
-13 -4 -16 -10z"/>
<path d="M7620 4710 c0 -5 7 -10 15 -10 8 0 15 5 15 10 0 6 -7 10 -15 10 -8 0
-15 -4 -15 -10z"/>
<path d="M8980 4690 c0 -5 5 -10 10 -10 6 0 10 5 10 10 0 6 -4 10 -10 10 -5 0
-10 -4 -10 -10z"/>
<path d="M8880 4646 c0 -9 5 -16 10 -16 6 0 10 4 10 9 0 6 -4 13 -10 16 -5 3
-10 -1 -10 -9z"/>
<path d="M8930 4610 c0 -5 7 -10 15 -10 8 0 15 5 15 10 0 6 -7 10 -15 10 -8 0
-15 -4 -15 -10z"/>
<path d="M8836 4521 c-4 -5 -2 -12 3 -15 5 -4 12 -2 15 3 4 5 2 12 -3 15 -5 4
-12 2 -15 -3z"/>
<path d="M6240 4470 c0 -5 14 -10 30 -10 17 0 30 5 30 10 0 6 -13 10 -30 10
-16 0 -30 -4 -30 -10z"/>
<path d="M6373 4473 c9 -2 23 -2 30 0 6 3 -1 5 -18 5 -16 0 -22 -2 -12 -5z"/>
<path d="M6095 4460 c-4 -6 13 -10 45 -10 32 0 49 4 45 10 -3 6 -24 10 -45 10
-21 0 -42 -4 -45 -10z"/>
<path d="M5945 4440 c3 -5 19 -10 35 -10 16 0 32 5 35 10 4 6 -10 10 -35 10
-25 0 -39 -4 -35 -10z"/>
<path d="M5824 4414 c-18 -15 -18 -15 6 -10 14 3 33 6 43 6 10 0 15 5 12 10
-9 15 -39 12 -61 -6z"/>
<path d="M5737 4374 c-13 -14 -7 -32 17 -47 23 -16 24 -15 22 16 -2 30 -23 47
-39 31z"/>
<path d="M5790 4265 c0 -15 60 -48 70 -39 5 6 -50 54 -62 54 -4 0 -8 -7 -8
-15z"/>
<path d="M5925 4191 c-7 -12 20 -24 91 -42 62 -16 67 -4 9 21 -65 28 -92 33
-100 21z"/>
<path d="M5265 4180 c-3 -5 1 -10 9 -10 9 0 16 5 16 10 0 6 -4 10 -9 10 -6 0
-13 -4 -16 -10z"/>
<path d="M6205 4120 c-4 -6 16 -10 54 -10 32 0 68 -3 78 -6 14 -4 15 -4 3 4
-23 14 -128 24 -135 12z"/>
<path d="M6450 4079 c0 -8 15 -13 68 -24 20 -4 32 -3 32 4 0 6 -10 13 -22 15
-54 11 -78 13 -78 5z"/>
<path d="M6640 4040 c0 -13 12 -17 78 -25 41 -4 52 -3 52 8 0 9 -15 17 -37 21
-56 9 -93 7 -93 -4z"/>
<path d="M5185 4010 c-3 -5 1 -10 9 -10 9 0 16 5 16 10 0 6 -4 10 -9 10 -6 0
-13 -4 -16 -10z"/>
<path d="M5305 4010 c4 -6 11 -8 16 -5 14 9 11 15 -7 15 -8 0 -12 -5 -9 -10z"/>
<path d="M6850 4006 c0 -9 7 -16 15 -16 8 0 30 -14 49 -30 28 -25 33 -27 29
-11 -10 41 -93 91 -93 57z"/>
<path d="M6010 3970 c0 -5 7 -10 16 -10 8 0 12 5 9 10 -3 6 -10 10 -16 10 -5
0 -9 -4 -9 -10z"/>
<path d="M5335 3960 c4 -6 11 -8 16 -5 14 9 11 15 -7 15 -8 0 -12 -5 -9 -10z"/>
<path d="M6440 3920 c0 -5 7 -10 15 -10 8 0 15 5 15 10 0 6 -7 10 -15 10 -8 0
-15 -4 -15 -10z"/>
<path d="M6075 3900 c-3 -5 1 -10 9 -10 9 0 16 5 16 10 0 6 -4 10 -9 10 -6 0
-13 -4 -16 -10z"/>
<path d="M6546 3891 c-3 -5 1 -11 9 -15 15 -6 29 7 18 18 -9 9 -21 8 -27 -3z"/>
<path d="M6898 3870 c-20 -36 -10 -39 20 -7 25 26 28 37 10 37 -7 0 -21 -14
-30 -30z"/>
<path d="M6420 3860 c0 -5 7 -10 16 -10 8 0 12 5 9 10 -3 6 -10 10 -16 10 -5
0 -9 -4 -9 -10z"/>
<path d="M6480 3860 c0 -5 7 -10 16 -10 8 0 12 5 9 10 -3 6 -10 10 -16 10 -5
0 -9 -4 -9 -10z"/>
<path d="M6255 3830 c-3 -5 1 -10 10 -10 9 0 13 5 10 10 -3 6 -8 10 -10 10 -2
0 -7 -4 -10 -10z"/>
<path d="M6815 3790 c-23 -26 -4 -26 26 0 18 15 20 19 8 20 -9 0 -24 -9 -34
-20z"/>
<path d="M6440 3740 c0 -5 4 -10 9 -10 6 0 13 5 16 10 3 6 -1 10 -9 10 -9 0
-16 -4 -16 -10z"/>
<path d="M7550 5280 c0 -5 9 -10 20 -10 11 0 20 5 20 10 0 6 -9 10 -20 10 -11
0 -20 -4 -20 -10z"/>
<path d="M7450 5240 c0 -5 9 -10 21 -10 11 0 17 5 14 10 -3 6 -13 10 -21 10
-8 0 -14 -4 -14 -10z"/>
<path d="M7523 5198 c5 -21 5 -21 -7 -5 -14 19 -36 23 -36 7 0 -5 5 -10 10
-10 6 0 9 -3 9 -7 -3 -21 3 -22 31 -8 30 16 32 45 3 45 -11 0 -14 -7 -10 -22z"/>
<path d="M7367 5204 c-8 -8 1 -24 14 -24 5 0 9 7 9 15 0 15 -12 20 -23 9z"/>
<path d="M7430 5200 c0 -5 7 -10 15 -10 8 0 15 5 15 10 0 6 -7 10 -15 10 -8 0
-15 -4 -15 -10z"/>
<path d="M7380 5160 c0 -5 4 -10 9 -10 6 0 13 5 16 10 3 6 -1 10 -9 10 -9 0
-16 -4 -16 -10z"/>
<path d="M7325 5140 c3 -5 13 -10 21 -10 8 0 14 5 14 10 0 6 -9 10 -21 10 -11
0 -17 -4 -14 -10z"/>
<path d="M7316 5122 c-3 -6 -1 -14 5 -17 15 -10 25 3 12 16 -7 7 -13 7 -17 1z"/>
<path d="M7374 5115 c-9 -22 3 -32 36 -31 29 1 40 21 11 21 -8 0 -16 6 -19 13
-5 16 -21 15 -28 -3z"/>
<path d="M7479 5108 c-7 -30 -7 -48 0 -48 12 0 21 39 10 46 -5 3 -9 4 -10 2z"/>
<path d="M7330 5080 c-8 -5 -12 -12 -8 -15 9 -9 48 4 48 16 0 12 -21 11 -40
-1z"/>
<path d="M7420 5060 c0 -5 7 -10 15 -10 8 0 15 5 15 10 0 6 -7 10 -15 10 -8 0
-15 -4 -15 -10z"/>
<path d="M4640 4860 c0 -5 5 -10 10 -10 6 0 10 5 10 10 0 6 -4 10 -10 10 -5 0
-10 -4 -10 -10z"/>
<path d="M4560 4820 c0 -5 7 -10 15 -10 8 0 15 5 15 10 0 6 -7 10 -15 10 -8 0
-15 -4 -15 -10z"/>
<path d="M4330 4526 c0 -8 9 -18 21 -21 31 -10 33 0 4 19 -21 14 -25 14 -25 2z"/>
<path d="M4216 4465 c-11 -8 -17 -18 -14 -21 11 -10 48 7 48 22 0 18 -10 17
-34 -1z"/>
<path d="M4862 4449 c2 -6 8 -10 13 -10 5 0 11 4 13 10 2 6 -4 11 -13 11 -9 0
-15 -5 -13 -11z"/>
<path d="M4250 4415 c0 -8 7 -15 15 -15 8 0 15 4 15 9 0 5 -7 11 -15 15 -9 3
-15 0 -15 -9z"/>
<path d="M4640 4404 c0 -8 5 -12 10 -9 6 3 10 10 10 16 0 5 -4 9 -10 9 -5 0
-10 -7 -10 -16z"/>
<path d="M4380 4395 c0 -8 5 -15 10 -15 6 0 10 7 10 15 0 8 -4 15 -10 15 -5 0
-10 -7 -10 -15z"/>
<path d="M4170 4386 c0 -7 8 -16 18 -20 9 -3 23 -9 30 -12 6 -3 12 -1 12 5 0
6 -7 11 -15 11 -8 0 -15 7 -15 15 0 8 -7 15 -15 15 -8 0 -15 -6 -15 -14z"/>
<path d="M4128 4380 c-19 -11 -14 -46 8 -54 9 -3 14 1 14 13 0 11 3 26 6 35 7
18 -3 20 -28 6z"/>
<path d="M4170 4325 c13 -16 50 -21 50 -6 0 10 -24 21 -47 21 -13 0 -13 -3 -3
-15z"/>
<path d="M4260 4332 c0 -14 11 -21 26 -15 8 3 11 9 8 14 -7 11 -34 12 -34 1z"/>
<path d="M4420 4310 c0 -5 7 -10 15 -10 8 0 15 5 15 10 0 6 -7 10 -15 10 -8 0
-15 -4 -15 -10z"/>
<path d="M4670 4300 c0 -5 4 -10 9 -10 6 0 13 5 16 10 3 6 -1 10 -9 10 -9 0
-16 -4 -16 -10z"/>
<path d="M4200 4290 c0 -5 7 -10 15 -10 8 0 15 5 15 10 0 6 -7 10 -15 10 -8 0
-15 -4 -15 -10z"/>
<path d="M4285 4240 c-8 -14 3 -30 21 -30 16 0 16 2 8 24 -7 18 -20 21 -29 6z"/>
<path d="M4580 4235 c0 -9 5 -15 11 -13 6 2 11 8 11 13 0 5 -5 11 -11 13 -6 2
-11 -4 -11 -13z"/>
<path d="M4735 4239 c-10 -15 3 -25 16 -12 7 7 7 13 1 17 -6 3 -14 1 -17 -5z"/>
<path d="M4936 4233 c-11 -11 -6 -23 9 -23 8 0 15 4 15 9 0 13 -16 22 -24 14z"/>
<path d="M4350 4210 c0 -5 7 -10 15 -10 8 0 15 5 15 10 0 6 -7 10 -15 10 -8 0
-15 -4 -15 -10z"/>
<path d="M4285 4180 c4 -6 11 -8 16 -5 14 9 11 15 -7 15 -8 0 -12 -5 -9 -10z"/>
<path d="M4245 4159 c-10 -15 3 -25 16 -12 7 7 7 13 1 17 -6 3 -14 1 -17 -5z"/>
<path d="M4860 4156 c0 -9 5 -16 10 -16 6 0 10 4 10 9 0 6 -4 13 -10 16 -5 3
-10 -1 -10 -9z"/>
<path d="M4955 4150 c-3 -5 -3 -15 0 -20 7 -12 45 5 45 20 0 13 -37 13 -45 0z"/>
<path d="M4276 4139 c-14 -9 -15 -13 -6 -19 7 -5 21 -3 32 3 36 23 12 37 -26
16z"/>
<path d="M4425 4140 c3 -5 13 -10 21 -10 8 0 14 5 14 10 0 6 -9 10 -21 10 -11
0 -17 -4 -14 -10z"/>
<path d="M4560 4115 c0 -8 5 -15 10 -15 6 0 10 7 10 15 0 8 -4 15 -10 15 -5 0
-10 -7 -10 -15z"/>
<path d="M4310 4096 c0 -9 5 -16 10 -16 6 0 10 4 10 9 0 6 -4 13 -10 16 -5 3
-10 -1 -10 -9z"/>
<path d="M4980 4100 c0 -5 7 -10 15 -10 8 0 15 5 15 10 0 6 -7 10 -15 10 -8 0
-15 -4 -15 -10z"/>
<path d="M4350 4090 c0 -5 7 -10 15 -10 8 0 15 5 15 10 0 6 -7 10 -15 10 -8 0
-15 -4 -15 -10z"/>
<path d="M4705 4091 c-3 -5 -1 -12 5 -16 12 -7 30 2 30 16 0 12 -27 12 -35 0z"/>
<path d="M4800 4080 c0 -5 7 -10 15 -10 8 0 15 5 15 10 0 6 -7 10 -15 10 -8 0
-15 -4 -15 -10z"/>
<path d="M4850 4081 c0 -12 48 -27 57 -17 9 8 2 13 -30 21 -17 5 -27 3 -27 -4z"/>
<path d="M4437 4073 c-12 -11 -8 -23 8 -23 8 0 15 7 15 15 0 16 -12 20 -23 8z"/>
<path d="M4960 4070 c0 -5 9 -10 21 -10 11 0 17 5 14 10 -3 6 -13 10 -21 10
-8 0 -14 -4 -14 -10z"/>
<path d="M4590 4060 c0 -5 4 -10 9 -10 6 0 13 5 16 10 3 6 -1 10 -9 10 -9 0
-16 -4 -16 -10z"/>
<path d="M4970 4040 c0 -5 9 -10 20 -10 11 0 20 5 20 10 0 6 -9 10 -20 10 -11
0 -20 -4 -20 -10z"/>
<path d="M4592 4029 c2 -6 8 -10 13 -10 5 0 11 4 13 10 2 6 -4 11 -13 11 -9 0
-15 -5 -13 -11z"/>
<path d="M4840 4031 c0 -11 26 -22 34 -14 12 12 5 23 -14 23 -11 0 -20 -4 -20
-9z"/>
<path d="M4463 4023 c-13 -2 -23 -9 -23 -14 0 -13 13 -11 46 6 28 15 22 17
-23 8z"/>
<path d="M4640 4006 c0 -9 7 -16 16 -16 9 0 14 5 12 12 -6 18 -28 21 -28 4z"/>
<path d="M4916 4005 c-11 -8 -16 -15 -11 -15 5 0 0 -6 -10 -14 -16 -12 -17
-16 -6 -30 7 -9 22 -16 32 -16 15 0 17 6 14 35 -4 26 -1 35 10 35 8 0 15 5 15
10 0 14 -22 12 -44 -5z"/>
<path d="M4530 3990 c0 -5 7 -10 15 -10 8 0 15 5 15 10 0 6 -7 10 -15 10 -8 0
-15 -4 -15 -10z"/>
<path d="M4735 3990 c3 -5 10 -10 16 -10 5 0 9 5 9 10 0 6 -7 10 -16 10 -8 0
-12 -4 -9 -10z"/>
<path d="M4845 3990 c4 -6 11 -8 16 -5 14 9 11 15 -7 15 -8 0 -12 -5 -9 -10z"/>
<path d="M4680 3970 c0 -5 4 -10 9 -10 6 0 13 5 16 10 3 6 -1 10 -9 10 -9 0
-16 -4 -16 -10z"/>
<path d="M4526 3962 c-3 -6 -1 -14 5 -17 15 -10 25 3 12 16 -7 7 -13 7 -17 1z"/>
<path d="M4620 3960 c0 -5 6 -10 14 -10 8 0 18 5 21 10 3 6 -3 10 -14 10 -12
0 -21 -4 -21 -10z"/>
<path d="M4760 3955 c0 -8 -6 -15 -14 -15 -8 0 -18 -4 -21 -10 -4 -6 8 -10 28
-10 30 0 35 3 35 25 0 15 -6 25 -14 25 -8 0 -14 -7 -14 -15z"/>
<path d="M4812 3953 c2 -12 11 -17 23 -15 36 7 35 15 -3 27 -20 6 -23 4 -20
-12z"/>
<path d="M5500 3660 c0 -5 5 -10 10 -10 6 0 10 5 10 10 0 6 -4 10 -10 10 -5 0
-10 -4 -10 -10z"/>
<path d="M5650 3651 c0 -6 5 -13 10 -16 6 -3 10 1 10 9 0 9 -4 16 -10 16 -5 0
-10 -4 -10 -9z"/>
<path d="M5590 3560 c0 -5 7 -10 15 -10 8 0 15 5 15 10 0 6 -7 10 -15 10 -8 0
-15 -4 -15 -10z"/>
<path d="M5470 3490 c0 -5 9 -10 21 -10 11 0 17 5 14 10 -3 6 -13 10 -21 10
-8 0 -14 -4 -14 -10z"/>
<path d="M5530 3460 c0 -5 5 -10 10 -10 6 0 10 5 10 10 0 6 -4 10 -10 10 -5 0
-10 -4 -10 -10z"/>
<path d="M8560 3084 c0 -17 22 -14 28 4 2 7 -3 12 -12 12 -9 0 -16 -7 -16 -16z"/>
<path d="M3550 3060 c0 -5 7 -10 15 -10 8 0 15 5 15 10 0 6 -7 10 -15 10 -8 0
-15 -4 -15 -10z"/>
<path d="M7615 3050 c4 -6 11 -8 16 -5 14 9 11 15 -7 15 -8 0 -12 -5 -9 -10z"/>
<path d="M8370 3030 c0 -5 9 -10 21 -10 11 0 17 5 14 10 -3 6 -13 10 -21 10
-8 0 -14 -4 -14 -10z"/>
<path d="M8530 3004 c0 -8 5 -12 10 -9 6 3 10 10 10 16 0 5 -4 9 -10 9 -5 0
-10 -7 -10 -16z"/>
<path d="M5710 2980 c0 -5 4 -10 9 -10 6 0 13 5 16 10 3 6 -1 10 -9 10 -9 0
-16 -4 -16 -10z"/>
<path d="M1846 2881 c-3 -5 1 -11 9 -15 9 -3 15 0 15 9 0 16 -16 20 -24 6z"/>
<path d="M7010 2880 c0 -5 7 -10 15 -10 8 0 15 5 15 10 0 6 -7 10 -15 10 -8 0
-15 -4 -15 -10z"/>
<path d="M5700 2846 c0 -9 5 -16 10 -16 6 0 10 4 10 9 0 6 -4 13 -10 16 -5 3
-10 -1 -10 -9z"/>
<path d="M5825 2830 c-4 -6 -4 -10 -1 -10 2 0 11 -3 20 -6 9 -3 16 -2 16 4 0
14 -28 23 -35 12z"/>
<path d="M3275 2820 c3 -5 10 -10 16 -10 5 0 9 5 9 10 0 6 -7 10 -16 10 -8 0
-12 -4 -9 -10z"/>
<path d="M1830 2785 c0 -8 7 -15 16 -15 14 0 14 3 4 15 -7 8 -14 15 -16 15 -2
0 -4 -7 -4 -15z"/>
<path d="M5740 2790 c0 -5 5 -10 10 -10 6 0 10 5 10 10 0 6 -4 10 -10 10 -5 0
-10 -4 -10 -10z"/>
<path d="M1870 2776 c0 -9 5 -16 10 -16 6 0 10 4 10 9 0 6 -4 13 -10 16 -5 3
-10 -1 -10 -9z"/>
<path d="M2980 2780 c0 -5 5 -10 10 -10 6 0 10 5 10 10 0 6 -4 10 -10 10 -5 0
-10 -4 -10 -10z"/>
<path d="M1780 2760 c0 -5 7 -10 15 -10 8 0 15 5 15 10 0 6 -7 10 -15 10 -8 0
-15 -4 -15 -10z"/>
<path d="M1680 2750 c0 -5 7 -10 16 -10 8 0 12 5 9 10 -3 6 -10 10 -16 10 -5
0 -9 -4 -9 -10z"/>
<path d="M2900 2740 c0 -5 7 -10 15 -10 8 0 15 5 15 10 0 6 -7 10 -15 10 -8 0
-15 -4 -15 -10z"/>
<path d="M1750 2730 c0 -5 7 -10 16 -10 8 0 12 5 9 10 -3 6 -10 10 -16 10 -5
0 -9 -4 -9 -10z"/>
<path d="M3065 2709 c-10 -15 3 -25 16 -12 7 7 7 13 1 17 -6 3 -14 1 -17 -5z"/>
<path d="M5607 2714 c-11 -11 3 -24 18 -18 8 4 12 10 9 15 -6 11 -18 12 -27 3z"/>
<path d="M1686 2702 c-3 -6 -1 -14 5 -17 15 -10 25 3 12 16 -7 7 -13 7 -17 1z"/>
<path d="M5765 2690 c-3 -5 1 -10 9 -10 9 0 16 5 16 10 0 6 -4 10 -9 10 -6 0
-13 -4 -16 -10z"/>
<path d="M2935 2679 c-10 -15 3 -25 16 -12 7 7 7 13 1 17 -6 3 -14 1 -17 -5z"/>
<path d="M1710 2665 c-7 -8 -9 -15 -5 -15 4 0 1 -7 -6 -16 -11 -14 -10 -15 11
-12 17 2 25 9 24 21 -1 9 2 17 7 17 5 0 9 5 9 10 0 15 -26 12 -40 -5z"/>
<path d="M7325 2670 c3 -5 12 -10 20 -10 8 0 17 5 20 10 4 6 -5 10 -20 10 -15
0 -24 -4 -20 -10z"/>
<path d="M2880 2650 c0 -5 7 -10 15 -10 8 0 15 5 15 10 0 6 -7 10 -15 10 -8 0
-15 -4 -15 -10z"/>
<path d="M3040 2650 c0 -5 7 -10 16 -10 8 0 12 5 9 10 -3 6 -10 10 -16 10 -5
0 -9 -4 -9 -10z"/>
<path d="M1730 2590 c-8 -5 -11 -12 -7 -16 4 -4 13 -2 19 4 15 15 7 24 -12 12z"/>
<path d="M13530 4837 c-403 -952 -737 -1740 -742 -1749 -8 -17 7 -18 250 -18
l259 0 78 190 78 190 811 0 812 0 75 -187 75 -188 262 -3 261 -2 -18 42 c-10
24 -341 808 -736 1743 -395 935 -721 1703 -724 1707 -4 4 -337 -772 -741
-1725z m845 258 c53 -132 120 -292 148 -355 97 -221 347 -814 343 -817 -1 -2
-276 -2 -609 -1 l-606 3 306 713 c169 392 310 709 314 705 3 -5 50 -116 104
-248z"/>
<path d="M20200 4561 l0 -1481 195 0 195 0 2 933 3 933 825 -1024 c454 -563
828 -1026 833 -1028 4 -3 7 661 7 1475 l0 1481 -190 0 -190 0 0 -935 c0 -514
-3 -935 -7 -935 -5 1 -357 433 -783 961 -426 528 -801 992 -832 1031 l-58 71
0 -1482z"/>
<path d="M15910 4465 l0 -1385 550 0 550 0 0 190 0 190 -357 2 -358 3 -3 1193
-2 1192 -190 0 -190 0 0 -1385z"/>
<path d="M17150 4465 l0 -1385 190 0 190 0 0 394 0 394 258 5 c264 5 345 14
494 58 332 97 582 360 654 689 22 96 29 290 15 394 -53 395 -317 686 -719 791
-149 40 -226 45 -659 45 l-423 0 0 -1385z m972 972 c255 -67 396 -210 444
-447 41 -206 -23 -434 -157 -555 -90 -81 -185 -127 -334 -161 -65 -15 -124
-18 -310 -19 l-230 0 -3 595 c-1 327 0 601 3 609 4 11 49 12 248 9 219 -5 251
-8 339 -31z"/>
<path d="M10460 4984 c8 -4 21 -13 28 -22 6 -9 12 -11 12 -5 0 6 10 9 23 6 20
-4 20 -3 4 7 -11 7 -33 14 -50 16 -18 2 -25 1 -17 -2z"/>
<path d="M10420 4935 c0 -3 13 -11 30 -16 26 -10 29 -15 24 -37 -4 -15 -7 -28
-8 -29 -1 -1 -25 3 -55 9 -72 13 -75 4 -7 -18 51 -16 56 -20 56 -46 l0 -28
-57 6 c-66 7 -65 -6 2 -29 22 -8 40 -19 39 -26 -1 -6 -2 -19 -2 -29 -2 -15
-11 -17 -77 -14 -96 5 -99 -12 -5 -29 69 -12 77 -19 65 -52 -5 -12 -22 -9
-102 15 -52 15 -101 28 -107 28 -16 -1 69 -45 137 -71 51 -19 57 -24 57 -50 0
-16 -4 -29 -8 -29 -5 0 -53 7 -108 15 -101 15 -151 19 -143 10 5 -4 154 -44
222 -59 27 -6 33 -20 19 -43 -6 -10 -34 -8 -122 8 -171 29 -200 21 -60 -18 63
-17 127 -34 143 -37 20 -5 27 -12 27 -29 0 -44 -10 -46 -127 -17 -61 16 -131
31 -155 34 -43 6 -42 6 17 -18 33 -13 102 -37 153 -52 l93 -28 -3 -35 c-4 -45
1 -45 -201 8 -87 23 -163 41 -169 39 -5 -2 70 -31 168 -64 171 -58 179 -63
182 -89 2 -15 0 -31 -5 -36 -5 -5 -94 2 -212 17 -111 14 -210 24 -219 22 -14
-3 153 -38 398 -84 23 -4 25 -9 22 -40 l-4 -36 -42 7 c-192 31 -352 54 -406
58 -61 6 -58 4 50 -23 63 -16 176 -41 251 -56 l136 -28 -22 -122 -21 -123 21
-5 c11 -3 34 -6 51 -6 l31 0 7 78 c3 42 9 97 12 120 6 43 7 44 38 38 65 -14
334 -54 396 -60 50 -4 58 -3 35 4 -30 10 -288 68 -397 90 l-58 11 0 41 c0 37
2 40 23 35 45 -12 357 -48 379 -45 22 3 -337 78 -374 78 -14 0 -18 8 -18 36 0
25 4 35 13 31 31 -12 340 -88 343 -84 4 4 -274 103 -318 113 -26 6 -28 10 -28
51 0 39 2 44 18 38 35 -14 274 -66 285 -62 7 2 -57 26 -140 53 l-153 49 0 31
c0 17 2 33 5 35 2 3 51 -3 107 -13 57 -9 117 -17 133 -17 29 0 29 1 -10 15
-22 8 -80 25 -130 38 -83 21 -90 25 -93 49 -4 32 -10 31 98 12 85 -15 158 -20
148 -10 -3 3 -57 19 -119 34 -108 28 -114 30 -117 56 -3 23 -1 27 15 21 44
-17 188 -56 196 -53 9 3 -78 45 -165 81 -32 13 -38 20 -38 45 l0 31 88 0 c100
0 96 12 -10 30 -62 11 -68 14 -68 36 0 24 2 24 58 18 65 -7 64 6 -3 29 -34 12
-40 19 -43 46 -3 28 -1 32 15 27 10 -2 41 -7 68 -10 49 -6 50 -6 20 9 -16 8
-45 17 -62 21 -28 5 -33 10 -33 36 0 29 1 30 35 24 46 -9 45 1 -2 21 -40 17
-103 28 -103 18z"/>
<path d="M9590 4464 c0 -8 5 -12 10 -9 6 3 10 10 10 16 0 5 -4 9 -10 9 -5 0
-10 -7 -10 -16z"/>
<path d="M9120 4430 c0 -5 5 -10 11 -10 5 0 7 5 4 10 -3 6 -8 10 -11 10 -2 0
-4 -4 -4 -10z"/>
<path d="M9110 4334 c0 -8 5 -12 10 -9 6 4 8 11 5 16 -9 14 -15 11 -15 -7z"/>
<path d="M8760 4180 c0 -5 5 -10 10 -10 6 0 10 5 10 10 0 6 -4 10 -10 10 -5 0
-10 -4 -10 -10z"/>
<path d="M9175 4180 c-3 -5 1 -10 10 -10 9 0 13 5 10 10 -3 6 -8 10 -10 10 -2
0 -7 -4 -10 -10z"/>
<path d="M8735 4120 c-3 -5 1 -10 9 -10 9 0 16 5 16 10 0 6 -4 10 -9 10 -6 0
-13 -4 -16 -10z"/>
<path d="M8770 4079 c0 -5 5 -7 10 -4 6 3 10 8 10 11 0 2 -4 4 -10 4 -5 0 -10
-5 -10 -11z"/>
<path d="M8670 4070 c0 -5 5 -10 11 -10 5 0 7 5 4 10 -3 6 -8 10 -11 10 -2 0
-4 -4 -4 -10z"/>
<path d="M8595 4060 c-3 -5 -1 -10 4 -10 6 0 11 5 11 10 0 6 -2 10 -4 10 -3 0
-8 -4 -11 -10z"/>
<path d="M10840 4010 c0 -5 14 -25 30 -43 17 -19 30 -39 30 -45 0 -6 22 -39
49 -74 78 -103 100 -159 66 -172 -25 -9 -17 -56 19 -110 19 -29 63 -113 99
-187 69 -147 107 -206 234 -372 45 -60 92 -126 105 -148 12 -21 27 -39 34 -39
7 0 15 -9 19 -19 3 -11 35 -63 70 -116 67 -100 73 -117 54 -159 l-12 -25 -350
-1 c-192 0 -354 -3 -359 -6 -16 -10 -864 -12 -958 -2 -84 8 -697 21 -860 18
l-85 -1 50 52 c28 29 9 15 -41 -32 -50 -46 -118 -100 -153 -120 l-62 -37 218
-7 c120 -4 324 -4 453 1 272 10 247 10 1215 -1 407 -4 838 -4 958 0 l219 7 34
30 c19 17 34 36 34 44 0 7 -28 36 -62 63 -35 27 -74 68 -88 91 -14 23 -40 63
-57 88 -52 75 -103 167 -103 186 0 29 -40 96 -119 200 -82 109 -113 169 -138
274 -17 69 -59 137 -133 214 -20 20 -58 78 -85 128 -51 95 -172 241 -224 270
-15 8 -40 25 -55 38 -31 24 -46 28 -46 12z"/>
<path d="M7810 3960 c0 -5 4 -10 9 -10 6 0 13 5 16 10 3 6 -1 10 -9 10 -9 0
-16 -4 -16 -10z"/>
<path d="M7748 3893 c6 -2 18 -2 25 0 6 3 1 5 -13 5 -14 0 -19 -2 -12 -5z"/>
<path d="M7300 3750 c0 -5 5 -10 10 -10 6 0 10 5 10 10 0 6 -4 10 -10 10 -5 0
-10 -4 -10 -10z"/>
<path d="M10585 3730 c-3 -5 1 -10 9 -10 9 0 16 5 16 10 0 6 -4 10 -9 10 -6 0
-13 -4 -16 -10z"/>
<path d="M7165 3700 c-3 -5 1 -10 9 -10 8 0 18 5 21 10 3 6 -1 10 -9 10 -8 0
-18 -4 -21 -10z"/>
<path d="M7210 3700 c0 -5 5 -10 10 -10 6 0 10 5 10 10 0 6 -4 10 -10 10 -5 0
-10 -4 -10 -10z"/>
<path d="M9765 3670 c-3 -5 1 -10 9 -10 9 0 16 5 16 10 0 6 -4 10 -9 10 -6 0
-13 -4 -16 -10z"/>
<path d="M10506 3661 c-4 -7 -5 -15 -2 -18 9 -9 19 4 14 18 -4 11 -6 11 -12 0z"/>
<path d="M7100 3655 c0 -13 40 -48 47 -41 4 4 1 11 -7 16 -10 7 -11 10 -2 10
6 0 12 5 12 10 0 6 -11 10 -25 10 -14 0 -25 -2 -25 -5z"/>
<path d="M9665 3650 c3 -5 10 -10 16 -10 5 0 9 5 9 10 0 6 -7 10 -16 10 -8 0
-12 -4 -9 -10z"/>
<path d="M10245 3640 c-3 -5 1 -10 9 -10 8 0 18 5 21 10 3 6 -1 10 -9 10 -8 0
-18 -4 -21 -10z"/>
<path d="M7175 3629 c-3 -4 20 -7 50 -8 30 0 55 4 55 10 0 11 -98 10 -105 -2z"/>
<path d="M10888 3633 c6 -2 12 -11 12 -19 0 -8 5 -14 11 -14 6 0 8 7 5 16 -3
9 -6 18 -6 20 0 2 -8 4 -17 3 -11 0 -13 -3 -5 -6z"/>
<path d="M7375 3610 c-4 -6 5 -10 20 -10 15 0 24 4 20 10 -3 6 -12 10 -20 10
-8 0 -17 -4 -20 -10z"/>
<path d="M7160 3594 c0 -17 22 -14 28 4 2 7 -3 12 -12 12 -9 0 -16 -7 -16 -16z"/>
<path d="M6820 3581 c0 -26 10 -51 21 -51 10 0 12 31 3 54 -9 22 -24 20 -24
-3z"/>
<path d="M10180 3590 c0 -5 5 -10 10 -10 6 0 10 5 10 10 0 6 -4 10 -10 10 -5
0 -10 -4 -10 -10z"/>
<path d="M7260 3580 c0 -5 4 -10 9 -10 6 0 13 5 16 10 3 6 -1 10 -9 10 -9 0
-16 -4 -16 -10z"/>
<path d="M10110 3580 c0 -5 5 -10 10 -10 6 0 10 5 10 10 0 6 -4 10 -10 10 -5
0 -10 -4 -10 -10z"/>
<path d="M10278 3578 c9 -9 15 -9 24 0 9 9 7 12 -12 12 -19 0 -21 -3 -12 -12z"/>
<path d="M10330 3570 c0 -5 9 -10 20 -10 11 0 20 5 20 10 0 6 -9 10 -20 10
-11 0 -20 -4 -20 -10z"/>
<path d="M10242 3558 c5 -15 28 -18 29 -3 0 6 -7 12 -17 13 -10 3 -15 -1 -12
-10z"/>
<path d="M6760 3550 c0 -5 5 -10 10 -10 6 0 10 5 10 10 0 6 -4 10 -10 10 -5 0
-10 -4 -10 -10z"/>
<path d="M10125 3549 c-12 -19 5 -23 22 -6 16 16 16 17 1 17 -9 0 -20 -5 -23
-11z"/>
<path d="M10275 3541 c-6 -11 9 -23 19 -14 9 9 7 23 -3 23 -6 0 -12 -4 -16 -9z"/>
<path d="M10350 3540 c0 -5 5 -10 10 -10 6 0 10 5 10 10 0 6 -4 10 -10 10 -5
0 -10 -4 -10 -10z"/>
<path d="M6860 3489 c0 -12 70 -44 119 -54 49 -10 32 9 -35 39 -61 28 -84 32
-84 15z"/>
<path d="M10390 3490 c0 -5 5 -10 10 -10 6 0 10 5 10 10 0 6 -4 10 -10 10 -5
0 -10 -4 -10 -10z"/>
<path d="M7082 3408 c7 -21 108 -39 108 -19 0 11 -16 16 -74 26 -29 5 -37 3
-34 -7z"/>
<path d="M7277 3384 c-13 -14 6 -24 44 -24 47 0 52 15 8 24 -39 8 -44 8 -52 0z"/>
<path d="M7460 3370 c-19 -12 -6 -16 70 -24 54 -5 103 7 70 18 -34 10 -126 15
-140 6z"/>
<path d="M7717 3363 c-18 -17 -1 -23 65 -23 42 0 68 4 63 9 -13 11 -120 23
-128 14z"/>
<path d="M7965 3356 c-18 -14 -13 -15 70 -15 97 0 100 12 5 24 -42 5 -60 3
-75 -9z"/>
<path d="M8314 3335 c21 -16 126 -21 126 -6 0 11 -51 21 -104 21 -38 -1 -40
-2 -22 -15z"/>
<path d="M8604 3322 c11 -18 76 -32 154 -32 74 0 96 13 40 24 -70 14 -201 19
-194 8z"/>
<path d="M9047 3313 c-15 -14 -5 -23 35 -33 46 -13 149 -4 113 10 -27 10 -112
30 -128 30 -8 0 -17 -3 -20 -7z"/>
<path d="M9441 3302 c-32 -22 3 -32 115 -32 106 0 145 10 90 24 -46 11 -191
17 -205 8z"/>
<path d="M9755 3228 c21 -67 19 -74 -26 -99 -58 -33 -64 -53 -9 -34 84 30 119
63 111 105 -5 26 -33 50 -59 50 -21 0 -23 -3 -17 -22z"/>
<path d="M9460 3029 c-63 -22 -119 -44 -124 -49 -7 -7 13 -10 55 -10 97 1 252
61 233 91 -9 15 -46 8 -164 -32z"/>
<path d="M10985 2969 c-10 -15 3 -25 16 -12 7 7 7 13 1 17 -6 3 -14 1 -17 -5z"/>
<path d="M11310 2940 c0 -5 7 -10 15 -10 8 0 15 5 15 10 0 6 -7 10 -15 10 -8
0 -15 -4 -15 -10z"/>
<path d="M9140 2877 c-30 -13 -85 -31 -122 -41 -37 -10 -72 -24 -79 -32 -10
-12 -1 -14 56 -14 101 0 265 59 265 96 0 21 -57 17 -120 -9z"/>
<path d="M11240 2850 c0 -5 5 -10 10 -10 6 0 10 5 10 10 0 6 -4 10 -10 10 -5
0 -10 -4 -10 -10z"/>
<path d="M11310 2790 c0 -5 7 -10 15 -10 8 0 15 5 15 10 0 6 -7 10 -15 10 -8
0 -15 -4 -15 -10z"/>
<path d="M10080 2770 c0 -5 7 -10 15 -10 8 0 15 5 15 10 0 6 -7 10 -15 10 -8
0 -15 -4 -15 -10z"/>
<path d="M11200 2750 c0 -5 7 -10 15 -10 8 0 15 5 15 10 0 6 -7 10 -15 10 -8
0 -15 -4 -15 -10z"/>
<path d="M11290 2750 c0 -5 9 -10 21 -10 11 0 17 5 14 10 -3 6 -13 10 -21 10
-8 0 -14 -4 -14 -10z"/>
<path d="M11105 2740 c-3 -6 1 -13 10 -16 19 -8 30 0 20 15 -8 14 -22 14 -30
1z"/>
<path d="M8740 2704 c-8 -3 -49 -18 -90 -34 -41 -16 -111 -38 -155 -50 -43
-12 -97 -31 -118 -43 l-39 -22 33 -6 c128 -27 454 71 454 136 0 16 -8 20 -35
22 -19 1 -42 0 -50 -3z"/>
<path d="M11430 2680 c0 -5 7 -10 16 -10 8 0 12 5 9 10 -3 6 -10 10 -16 10 -5
0 -9 -4 -9 -10z"/>
<path d="M11255 2671 c-6 -11 9 -23 19 -14 9 9 7 23 -3 23 -6 0 -12 -4 -16 -9z"/>
<path d="M9970 2639 c0 -5 5 -7 10 -4 6 3 10 8 10 11 0 2 -4 4 -10 4 -5 0 -10
-5 -10 -11z"/>
<path d="M9225 2590 c-4 -6 3 -10 14 -10 25 0 27 6 6 13 -8 4 -17 2 -20 -3z"/>
<path d="M11252 2578 c6 -18 28 -21 28 -4 0 9 -7 16 -16 16 -9 0 -14 -5 -12
-12z"/>
<path d="M12530 2415 l0 -55 3100 0 3100 0 0 55 0 55 -3100 0 -3100 0 0 -55z"/>
<path d="M20380 2415 l0 -55 940 0 940 0 0 55 0 55 -940 0 -940 0 0 -55z"/>
</g>
</svg>
